<svg width="512" height="512" viewBox="0 0 512 512" fill="none" xmlns="http://www.w3.org/2000/svg">
  <defs>
    <linearGradient id="emeraldGradient" x1="0" y1="0" x2="512" y2="512" gradientUnits="userSpaceOnUse">
      <stop offset="0%" stop-color="#10B981" />
      <stop offset="100%" stop-color="#059669" />
    </linearGradient>
    <filter id="shadow" x="-20%" y="-20%" width="140%" height="140%">
      <feDropShadow dx="0" dy="4" stdDeviation="8" flood-opacity="0.2" />
    </filter>
  </defs>
  
  <!-- Main Container: Squircle -->
  <rect x="32" y="32" width="448" height="448" rx="128" fill="url(#emeraldGradient)" filter="url(#shadow)" />
  
  <!-- Stylized 'S' / Money Symbol -->
  <path d="M256 128C196 128 160 160 160 208C160 288 288 296 288 336C288 360 264 376 232 376C192 376 160 352 152 320H104C112 376 160 416 224 422V448H288V422C340 416 368 384 368 336C368 256 240 248 240 208C240 188 260 176 288 176C320 176 344 196 352 224H400C392 172 352 136 288 130V104H224V130C192 134 176 148 176 148" fill="white" />
  
  <!-- Shine effect -->
  <path d="M32 160C32 89.2 89.2 32 160 32H352C422.8 32 480 89.2 480 160V200C480 200 256 32 160 32H32V160Z" fill="white" fill-opacity="0.1" />
</svg>